<svg xmlns="http://www.w3.org/2000/svg" xmlns:xlink="http://www.w3.org/1999/xlink" width="2835px" height="2151px" viewBox="0 0 2835 2151" version="1.1">
    <!-- Generator: Sketch 39.1 (31720) - http://www.bohemiancoding.com/sketch -->
    <title>logo</title>
    <desc>Created with Sketch.</desc>
    <defs/>
    <g id="Page-1" stroke="none" stroke-width="1" fill="none" fill-rule="evenodd">
        <g id="logo" transform="translate(0.000000, -1.000000)">
            <g id="Page-1">
                <g id="Group">
                    <g>
                        <g>
                            <path d="M1417.325,0.996 C2199.96,0.996 2834.65,482.487 2834.65,1076.188 C2834.65,1669.89 2199.96,2151.38 1417.325,2151.38 C634.69,2151.38 0,1669.89 0,1076.188 C0,482.487 634.69,0.996 1417.325,0.996" id="Fill-1" fill="#F7E123"/>
                            <path d="M1417.382,46.3561 L1417.382,46.5261 L1417.325,46.5261 L1417.212,46.5261 L1417.212,46.3561 C1036.082,46.3661 691.509,163.2141 442.568,352.0631 C197.184,538.2141 45.37,794.3091 45.36,1076.1481 L45.54,1076.1481 L45.54,1076.1881 L45.54,1076.2511 L45.36,1076.2511 C45.38,1358.0781 197.184,1614.1511 442.551,1800.3021 C691.504,1989.1741 1036.105,2106.0181 1417.268,2106.0241 L1417.268,2105.8471 L1417.325,2105.8471 L1417.439,2105.8471 L1417.439,2106.0241 C1798.569,2106.0061 2143.141,1989.1631 2392.08,1800.3141 C2637.47,1614.1631 2789.29,1358.0671 2789.29,1076.2281 L2789.12,1076.2281 L2789.12,1076.1881 L2789.12,1076.1261 L2789.29,1076.1261 C2789.27,794.3041 2637.47,538.2251 2392.1,352.0741 C2143.147,163.2141 1798.541,46.3561 1417.382,46.3561" id="Fill-3" fill="#353980"/>
                            <path d="M1417.365,326.099 L1417.365,326.227 L1417.325,326.227 L1417.246,326.227 L1417.246,326.099 C1151.58,326.111 911.396,411.216 737.872,548.765 C566.827,684.354 461.002,870.884 460.998,1076.159 L461.121,1076.159 L461.121,1076.188 L461.121,1076.234 L460.998,1076.234 C461.01,1281.501 566.827,1468.018 737.86,1603.603 C911.392,1741.161 1151.596,1826.273 1417.286,1826.277 L1417.286,1826.149 L1417.325,1826.149 L1417.405,1826.149 L1417.405,1826.277 C1683.071,1826.265 1923.255,1741.161 2096.779,1603.611 C2267.82,1468.022 2373.65,1281.493 2373.65,1076.217 L2373.53,1076.217 L2373.53,1076.188 L2373.53,1076.143 L2373.65,1076.143 C2373.64,870.875 2267.82,684.358 2096.791,548.778 C1923.255,411.216 1683.051,326.103 1417.365,326.099" id="Fill-5" fill="#F7E123"/>
                            <path d="M1435.089,383.15 L1417.371,383.15 L1417.32,383.15 L1387.717,383.15 C1272.035,386.053 1161.839,405.923 1061.011,439.668 C1037.863,447.415 1014.522,456.22 991.072,466.009 C968.106,475.594 945.972,485.816 924.759,496.585 C869.92,524.423 819.11,556.877 773.219,593.258 L773.162,593.184 L773.162,593.303 C750.481,611.277 729.29,629.923 709.723,649.144 C689.864,668.638 671.384,688.889 654.4,709.788 C571.979,811.219 522.524,930.226 518.039,1057.201 L518.039,1076.154 L518.039,1076.182 L518.039,1076.239 L518.039,1094.988 C519.974,1150.197 530.407,1203.96 548.37,1255.412 C554.99,1274.377 562.508,1292.795 570.858,1310.587 C614.752,1404.135 684.4,1488.742 773.202,1559.119 L773.976,1559.893 C796.48,1577.679 820.226,1594.572 845.081,1610.44 C869.237,1625.865 895.674,1640.896 924.269,1655.439 C1061.575,1725.275 1224.657,1766.699 1400.262,1769.226 L1417.286,1769.226 L1417.32,1769.226 L1417.411,1769.226 L1445.721,1769.226 C1561.853,1766.437 1672.453,1746.573 1773.634,1712.708 C1796.782,1704.962 1820.123,1696.157 1843.579,1686.367 C1866.539,1676.782 1888.668,1666.566 1909.892,1655.791 C1964.731,1627.954 2015.535,1595.494 2061.426,1559.119 L2061.483,1559.193 L2061.483,1559.073 C2084.165,1541.099 2105.355,1522.453 2124.922,1503.233 C2144.781,1483.739 2163.26,1463.488 2180.25,1442.588 C2262.58,1341.271 2312.03,1222.39 2316.61,1095.568 L2316.61,1076.222 L2316.61,1076.182 L2316.61,1076.143 L2316.61,1056.524 C2314.6,1001.605 2304.15,948.155 2286.28,896.964 C2279.66,877.999 2272.14,859.581 2263.79,841.789 C2219.9,748.241 2150.25,663.635 2061.449,593.258 L2060.561,592.364 L2060.493,592.307 C2038.039,574.583 2014.339,557.753 1989.564,541.936 C1965.408,526.512 1938.971,511.48 1910.376,496.938 C1773.247,427.192 1610.432,385.769 1435.089,383.15" id="Fill-7" fill="#BBBDBF"/>
                            <path d="M1431.816,419.833 L1431.828,538.151 C1458.026,537.781 1484.168,536.517 1510.042,534.355 C1486.405,490.091 1460.149,451.388 1431.816,419.833 L1431.816,419.833 L1431.816,419.833 L1431.816,419.833 Z M1431.828,566.467 L1431.845,797.599 C1489.643,797.514 1547.021,795.687 1603.283,792.158 C1583.692,707.438 1556.668,628.933 1523.879,561.492 C1493.485,564.355 1462.676,566.023 1431.828,566.467 L1431.828,566.467 L1431.828,566.467 L1431.828,566.467 Z M1431.845,825.978 L1431.862,1063.963 L1638.213,1063.963 C1637.888,1053.353 1637.456,1042.761 1636.892,1032.186 C1633.039,959.566 1623.619,888.074 1609.441,820.138 C1551.17,823.9 1491.721,825.87 1431.845,825.978 L1431.845,825.978 L1431.845,825.978 L1431.845,825.978 Z M1431.862,1092.421 L1431.879,1339.928 C1494.043,1340.042 1555.752,1342.153 1616.152,1346.211 C1632.515,1263.603 1639.63,1177.727 1638.799,1092.421 L1431.862,1092.421 L1431.862,1092.421 L1431.862,1092.421 Z M1431.879,1368.295 L1431.896,1599.53 C1463.189,1599.996 1494.442,1601.704 1525.267,1604.658 C1563.857,1534.104 1591.729,1456.003 1610.21,1374.209 C1551.739,1370.384 1492.04,1368.386 1431.879,1368.295 L1431.879,1368.295 L1431.879,1368.295 L1431.879,1368.295 Z M1431.896,1627.868 L1431.907,1736.237 C1461.242,1704.193 1487.139,1669.133 1509.763,1631.665 C1484.009,1629.507 1457.975,1628.25 1431.896,1627.868 L1431.896,1627.868 L1431.896,1627.868 L1431.896,1627.868 Z M1403.563,1736.22 L1403.552,1627.806 C1377.404,1628.067 1351.297,1629.211 1325.456,1631.243 C1348.138,1668.865 1374.114,1704.062 1403.563,1736.22 L1403.563,1736.22 L1403.563,1736.22 L1403.563,1736.22 Z M1403.552,1599.45 L1403.535,1368.386 C1344.256,1368.887 1284.67,1371.243 1225.505,1375.501 C1243.952,1456.595 1271.648,1534.036 1309.884,1604.066 C1340.784,1601.277 1372.128,1599.734 1403.552,1599.45 L1403.552,1599.45 L1403.552,1599.45 L1403.552,1599.45 Z M1403.535,1340.002 L1403.517,1092.421 L1196.575,1092.421 C1195.749,1178.148 1202.944,1264.451 1219.506,1347.429 C1280.629,1342.95 1342.235,1340.491 1403.535,1340.002 L1403.535,1340.002 L1403.535,1340.002 L1403.535,1340.002 Z M1403.517,1063.963 L1403.5,825.904 C1344.438,825.431 1285.086,823.138 1226.16,818.977 C1211.845,887.254 1202.323,959.128 1198.453,1032.152 C1197.89,1042.738 1197.474,1053.336 1197.15,1063.963 L1403.517,1063.963 L1403.517,1063.963 L1403.517,1063.963 Z M1403.5,797.514 L1403.483,566.535 C1372.555,566.245 1341.7,564.731 1311.279,562.016 C1278.751,629.007 1251.903,706.897 1232.375,790.917 C1289.263,794.856 1346.527,797.041 1403.5,797.514 L1403.5,797.514 L1403.5,797.514 L1403.5,797.514 Z M1403.483,538.208 L1403.472,420.049 C1375.105,451.644 1348.821,490.398 1325.178,534.708 C1351.08,536.762 1377.268,537.94 1403.483,538.208 L1403.483,538.208 L1403.483,538.208 L1403.483,538.208 Z M1149.59,1631.334 C1183.376,1622.552 1218.715,1615.58 1254.926,1610.435 C1263.031,1609.285 1271.187,1608.226 1279.388,1607.253 C1242.125,1536.438 1215.05,1458.758 1196.939,1377.703 C1161.196,1380.657 1125.657,1384.328 1090.494,1388.705 C1038.723,1395.16 987.822,1403.151 938.333,1412.741 C944.247,1422.383 950.434,1431.928 956.911,1441.359 C1005.495,1512.077 1069.759,1576.672 1149.59,1631.334 L1149.59,1631.334 L1149.59,1631.334 L1149.59,1631.334 Z M1258.933,1638.563 C1232.7,1642.291 1207.059,1646.964 1182.249,1652.593 C1237.947,1687.056 1300.504,1716.903 1369.863,1741.041 C1341.387,1708.024 1316.242,1672.2 1294.249,1634.152 C1282.388,1635.427 1270.606,1636.901 1258.933,1638.563 L1258.933,1638.563 L1258.933,1638.563 L1258.933,1638.563 Z M1555.678,1607.982 C1600.147,1613.485 1643.443,1621.642 1684.4,1632.444 C1765.074,1577.509 1829.93,1512.459 1878.884,1441.199 C1885.873,1431.028 1892.538,1420.715 1898.884,1410.299 C1817.608,1394.625 1729.899,1383.173 1638.805,1376.223 C1620.648,1458.086 1593.345,1536.54 1555.678,1607.982 L1555.678,1607.982 L1555.678,1607.982 L1555.678,1607.982 Z M1651.85,1653.52 C1616.214,1645.273 1578.974,1639.007 1540.897,1634.721 C1518.978,1672.57 1493.952,1708.206 1465.608,1741.064 C1534.397,1717.136 1596.493,1687.596 1651.85,1653.52 L1651.85,1653.52 L1651.85,1653.52 L1651.85,1653.52 Z M923.177,1386.764 C976.507,1376.155 1031.341,1367.413 1087.045,1360.475 C1121.411,1356.194 1156.147,1352.597 1191.077,1349.666 C1174.588,1265.783 1167.399,1178.786 1168.202,1092.421 L844.182,1092.421 C845.577,1193.55 871.98,1294.218 923.177,1386.764 L923.177,1386.764 L923.177,1386.764 L923.177,1386.764 Z M1644.621,1348.272 C1739.057,1355.614 1829.924,1367.737 1913.888,1384.357 C1964.247,1292.476 1990.207,1192.674 1991.601,1092.421 L1667.177,1092.421 C1667.986,1178.302 1660.899,1264.821 1644.621,1348.272 L1644.621,1348.272 L1644.621,1348.272 L1644.621,1348.272 Z M844.461,1063.963 L1168.76,1063.963 C1169.084,1052.858 1169.522,1041.771 1170.109,1030.706 C1173.985,957.586 1183.473,885.512 1197.724,816.831 C1160.552,813.826 1123.591,810.058 1087.045,805.522 C1031.46,798.624 976.746,789.91 923.512,779.357 C873.927,869.536 847.631,966.681 844.461,1063.963 L844.461,1063.963 L844.461,1063.963 L844.461,1063.963 Z M1666.614,1063.963 L1991.339,1063.963 C1988.209,967.535 1962.358,871.215 1913.586,781.708 C1827.716,798.635 1734.635,810.883 1637.905,818.152 C1652.003,886.446 1661.378,958.069 1665.237,1030.74 C1665.823,1041.794 1666.284,1052.87 1666.614,1063.963 L1666.614,1063.963 L1666.614,1063.963 L1666.614,1063.963 Z M938.578,753.352 C987.987,762.897 1038.802,770.871 1090.494,777.291 C1127.916,781.936 1165.772,785.749 1203.843,788.783 C1223.075,705.007 1249.467,626.924 1281.489,558.948 C1263.6,556.865 1245.893,554.367 1228.476,551.424 C1200.235,546.654 1172.715,540.752 1146.227,533.751 C1064.312,592.091 999.143,660.305 950.616,734.302 C946.478,740.614 942.477,746.961 938.578,753.352 L938.578,753.352 L938.578,753.352 L938.578,753.352 Z M1631.838,790.2 C1725.346,783.336 1815.388,771.765 1898.674,755.771 C1894.331,748.583 1889.835,741.451 1885.185,734.365 C1836.327,659.878 1770.617,591.243 1687.901,532.642 C1645.287,544.082 1600.073,552.636 1553.612,558.294 C1585.923,626.804 1612.515,705.622 1631.838,790.2 L1631.838,790.2 L1631.838,790.2 L1631.838,790.2 Z M1177.775,512.317 C1195.841,516.523 1214.327,520.228 1233.144,523.41 C1253.366,526.83 1273.97,529.648 1294.813,531.879 C1317.147,488.44 1341.905,449.777 1368.605,417.175 C1297.789,443.67 1234.185,475.759 1177.775,512.317 L1177.775,512.317 L1177.775,512.317 L1177.775,512.317 Z M1540.367,531.395 C1580.294,526.927 1619.316,520.262 1656.528,511.429 C1600.397,475.218 1537.169,443.408 1466.826,417.124 C1493.423,449.617 1518.096,488.127 1540.367,531.395 L1540.367,531.395 L1540.367,531.395 L1540.367,531.395 Z M1435.089,383.15 L1387.717,383.15 C1315.098,384.938 1199.978,459.862 1140.575,500.797 C1133.323,498.753 1126.146,496.636 1119.077,494.416 C1083.453,483.227 1050.288,469.806 1020.583,454.188 L1020.572,454.182 C1010.765,457.939 1000.924,461.894 991.072,466.009 L987.19,467.637 C995.358,472.407 1005.267,478.212 1007.356,479.311 C1038.666,495.777 1073.43,509.858 1110.631,521.543 L1111.411,521.782 C1034.904,579.245 973.28,645.359 926.5,716.692 C920.291,726.163 914.36,735.714 908.674,745.361 C896.517,742.823 884.433,740.222 872.475,737.49 C804.21,721.894 739.257,703.089 679.141,680.983 C672.346,688.496 665.726,696.106 659.323,703.806 L664.326,705.742 L665.225,706.077 C727.902,729.362 795.427,749.021 866.135,765.174 C875.395,767.291 884.724,769.334 894.092,771.332 C844.899,863.548 818.849,962.634 815.769,1061.913 L518.039,1062.198 L518.039,1076.182 L518.039,1090.656 L815.508,1090.372 C816.868,1193.51 843.015,1296.113 893.768,1390.726 C884.507,1392.706 875.287,1394.75 866.135,1396.85 C795.57,1413.02 728.186,1432.685 665.618,1455.975 C672.192,1463.664 678.959,1471.245 685.914,1478.719 C744.14,1457.608 806.777,1439.589 872.475,1424.534 C884.354,1421.814 896.352,1419.184 908.424,1416.657 C916.176,1429.719 924.4,1442.616 933.126,1455.315 C979.717,1523.131 1040.106,1585.483 1114.165,1639.246 C1084.37,1648.455 1056.094,1659.206 1029.878,1671.461 C1018.278,1676.879 1007.14,1682.571 996.536,1688.501 L996.565,1688.558 C1008.05,1693.277 1019.673,1697.819 1031.443,1702.156 C1034.898,1700.448 1038.37,1698.786 1041.887,1697.141 C1072.884,1682.65 1107.062,1670.334 1143.438,1660.231 C1144.143,1660.037 1252.091,1732.799 1367.58,1768.298 C1378.423,1768.754 1389.317,1769.067 1400.268,1769.226 L1445.721,1769.226 C1521.71,1767.433 1626.647,1702.309 1689.187,1661.102 C1729.393,1672.405 1766.997,1686.418 1800.794,1703.152 C1812.32,1698.906 1823.897,1694.415 1835.502,1689.68 L1835.644,1689.429 C1800.868,1670.049 1761.539,1653.725 1719.119,1640.47 C1794.039,1586.388 1855.036,1523.546 1902.02,1455.155 C1911.252,1441.712 1919.949,1428.052 1928.105,1414.198 C2009.963,1431.37 2084.614,1452.958 2148.77,1478.713 C2156.05,1470.876 2163.12,1462.936 2169.97,1454.893 C2105.542,1430.072 2018.836,1404.665 1942.596,1388.307 C1992.535,1294.366 2018.267,1192.634 2019.627,1090.372 L2316.61,1090.372 L2316.61,1076.182 L2316.61,1061.913 L2019.382,1061.913 C2016.343,963.476 1990.708,865.233 1942.312,773.694 C2027.043,755.589 2104.074,732.788 2169.76,705.577 L2175.16,703.613 C2168.75,695.912 2162.14,688.314 2155.35,680.824 C2089.685,707.688 2012.643,730.108 1927.906,747.803 C1921.799,737.347 1915.373,727 1908.651,716.755 C1861.513,644.881 1799.32,578.311 1721.994,520.541 C1763.326,507.439 1801.66,491.405 1835.644,472.407 L1845.895,467.04 C1834.535,462.259 1823.043,457.671 1811.404,453.266 C1775.968,471.923 1735.984,487.427 1692.961,499.767 C1626.727,454.353 1550.368,415.103 1463.866,383.924 C1454.31,383.549 1444.725,383.293 1435.089,383.15 L1435.089,383.15 L1435.089,383.15 L1435.089,383.15 Z" id="Fill-9" fill="#4782A5"/>
                            <path d="M1890.375,1192.9979 C1889.988,1195.3429 1889.561,1197.6709 1889.135,1200.0099 L1889.117,1200.0039 C1886.79,1212.7079 1884.166,1224.4219 1881.257,1235.1049 L1881.149,1235.1049 C1865.03,1294.2349 1836.344,1348.2599 1795.137,1397.0889 L1795.165,1397.1119 L1795.114,1397.1739 L1794.784,1397.5099 C1783.811,1410.4759 1772.257,1422.6669 1760.139,1434.0329 C1748.221,1445.2119 1735.466,1455.7809 1721.903,1465.6849 C1653.552,1515.5779 1571.097,1542.2089 1473.815,1542.2089 L1473.695,1542.2089 L1473.695,1542.0949 C1429.562,1542.0839 1388.065,1535.6689 1349.544,1523.9899 C1342.435,1521.8329 1336.236,1519.8069 1330.983,1517.9399 C1299.389,1506.6869 1270.008,1491.8829 1243.047,1474.2219 L1242.825,1474.1079 L1242.774,1474.0739 L1242.785,1474.0569 C1238.75,1471.4109 1233.838,1467.9839 1228.141,1463.8919 C1222.409,1459.7709 1217.623,1456.1969 1213.781,1453.1689 C1208.744,1449.2019 1203.82,1445.1319 1198.977,1440.9319 L1198.977,1512.7259 L1198.977,1541.1839 L1170.519,1541.1839 L1113.704,1541.1839 L1085.246,1541.1899 L1085.246,1512.7259 L1085.246,1265.3099 L1085.246,1236.8519 L1113.704,1236.8519 L1170.513,1236.8519 L1170.519,1236.8519 L1198.977,1236.8519 L1198.977,1258.6509 C1232.694,1323.5239 1283.378,1369.9849 1341.137,1397.4299 C1394.633,1422.8549 1454.173,1432.1099 1511.926,1424.7159 C1569.554,1417.3399 1625.497,1393.3669 1671.93,1352.3409 C1717.161,1312.3749 1753.565,1255.9869 1774.032,1182.6509 C1724.987,1185.1889 1674.491,1193.5439 1623.044,1202.0649 C1506.297,1221.4109 1384.752,1241.5529 1251.55,1200.8919 L1231.26,1194.6999 L1231.431,1173.5439 L1231.778,1130.7599 L1231.818,1125.6319 L1232.005,1102.3639 L1232.432,1049.9269 L1232.751,1010.8989 L1269.673,1023.1359 C1383.693,1060.9229 1498.027,1042.1979 1612.35,1023.4779 C1658.828,1015.8679 1705.323,1008.2699 1752.541,1004.1769 C1716.991,927.9609 1665.766,877.1109 1608.218,848.1469 C1570.721,829.2849 1530.436,819.5569 1490.008,818.0489 C1449.335,816.5349 1408.367,823.3199 1369.812,837.4409 C1298.66,863.4969 1236.12,914.5169 1198.977,984.3589 L1198.977,1006.0329 L1170.519,1006.0329 L1170.513,1006.0329 L1113.704,1006.0329 L1085.246,1006.0329 L1085.246,977.5749 L1085.246,730.1589 L1085.246,701.7059 L1113.704,701.6999 L1170.519,701.6999 L1198.977,701.7059 L1198.977,730.1589 L1198.977,797.2119 C1211.823,786.1589 1225.858,775.7369 1241.323,765.8849 L1241.436,765.7709 L1241.545,765.7029 L1241.567,765.7369 C1251.033,759.7209 1260.72,754.1039 1270.6,748.9359 C1281.267,743.3579 1291.409,738.5479 1301.005,734.5239 L1301.119,734.5239 C1354.182,712.2759 1412.789,701.1369 1476.906,701.1369 L1476.985,701.1369 L1476.985,701.2509 C1543.196,701.2619 1602.549,715.9409 1655.214,742.0539 C1663.518,746.1689 1671.936,750.7509 1680.41,755.7429 C1722.529,780.5469 1759.86,812.8019 1792.559,850.6219 C1816.777,878.6309 1836.845,906.7929 1852.674,936.2589 C1865.583,960.2949 1875.708,985.1789 1882.953,1011.4859 C1885.549,1011.8839 1887.882,1012.2539 1889.926,1012.6179 C1912.732,1016.6309 1937.548,1022.9709 1961.128,1030.2619 L1981.254,1036.4889 L1981.248,1057.3889 L1981.248,1100.9579 L1981.248,1109.3709 L1981.248,1130.0199 L1981.248,1141.6929 L1981.248,1181.5919 L1981.248,1221.4619 L1943.564,1208.3819 L1942.596,1208.0469 C1937.667,1206.3389 1932.863,1204.7399 1928.213,1203.2599 C1923.296,1201.6949 1918.845,1200.3339 1914.895,1199.1959 C1905.993,1196.6289 1897.826,1194.5859 1890.375,1192.9979" id="Fill-11" fill="#1A2128"/>
                            <path d="M711.373,1109.1258 C739.035,1116.0918 755.017,1100.3658 757.117,1079.6088 C757.754,1077.0878 758.096,1074.5548 758.107,1072.0958 C758.119,1069.5228 757.806,1066.5518 757.214,1063.2798 C753.941,1042.0158 737.435,1029.1128 711.373,1033.7738 L711.373,1109.1258 L711.373,1109.1258 L711.373,1109.1258 Z M724.498,1187.1358 L724.492,1208.3828 L743.081,1208.3828 L743.093,1236.8408 L743.11,1269.2718 L743.127,1297.7298 L714.765,1297.7298 L690.098,1297.7298 L666.039,1297.7298 L661.64,1297.7298 L637.581,1297.7298 L580.773,1297.7298 L552.445,1297.7298 L552.428,1269.2718 L552.411,1236.8408 L552.4,1208.3828 L572.047,1208.3828 L571.643,1033.5688 L551.455,1033.5688 L551.882,1004.7748 L552.428,968.0638 L552.849,939.9418 L580.773,939.9418 L637.581,939.9418 L661.64,939.9418 L666.039,939.9418 L676.939,939.9418 L690.098,939.9418 L690.098,940.0838 C722.165,940.7608 754.243,944.3528 780.868,957.3578 C815.508,974.2738 838.997,1004.4168 839.464,1058.0378 C839.874,1105.5228 826.544,1138.5518 800.351,1160.2028 C780.971,1176.2188 755.626,1184.6998 724.498,1187.1358 L724.498,1187.1358 L724.498,1187.1358 L724.498,1187.1358 Z" id="Fill-13" fill="#F7E123"/>
                            <polygon id="Fill-15" fill="#F7E123" points="1044.8409 1070.7869 1005.9439 1070.7869 977.8499 1070.7869 977.5999 1042.5509 977.5429 1035.9709 972.7909 1036.0339 972.7909 1206.7319 993.3999 1206.7319 993.3999 1235.1899 993.3999 1269.2719 993.3999 1297.7299 964.9419 1297.7299 938.4019 1297.7299 914.3429 1297.7299 909.9429 1297.7299 885.8849 1297.7299 881.3769 1297.7299 852.9189 1297.7299 852.9189 1297.6159 831.1539 1297.6159 802.6959 1297.6159 802.6959 1269.2719 802.6959 1235.1899 802.6959 1206.7319 823.1569 1206.7319 823.1569 1035.2199 802.6959 1035.2199 802.6959 1006.7609 802.6959 968.3999 802.6959 940.0549 831.1539 940.0549 852.9189 940.0549 852.9189 939.9419 881.3769 939.9419 909.9429 939.9419 938.4019 939.9419 938.4019 940.0549 1044.8409 940.0549 1073.2989 940.0549 1073.2989 968.3999 1073.2989 1042.3289 1073.2989 1070.7869"/>
                            <path d="M1837.978,1138.3068 C1837.591,1140.6518 1837.164,1142.9798 1836.737,1145.3188 L1836.72,1145.3128 C1834.392,1158.0168 1831.768,1169.7308 1828.86,1180.4138 L1828.752,1180.4138 C1812.633,1239.5438 1783.947,1293.5688 1742.74,1342.3978 L1742.768,1342.4208 L1742.717,1342.4828 L1742.387,1342.8188 C1731.413,1355.7848 1719.859,1367.9758 1707.742,1379.3418 C1695.823,1390.5208 1683.068,1401.0898 1669.505,1410.9938 C1601.154,1460.8868 1518.699,1487.5178 1421.418,1487.5178 L1421.298,1487.5178 L1421.298,1487.4038 C1377.165,1487.3928 1335.667,1480.9778 1297.146,1469.2988 C1290.037,1467.1418 1283.839,1465.1158 1278.586,1463.2488 C1246.991,1451.9958 1217.611,1437.1918 1190.65,1419.5308 L1190.428,1419.4168 L1190.377,1419.3828 L1190.388,1419.3658 C1186.353,1416.7188 1181.441,1413.2928 1175.743,1409.2008 C1170.012,1405.0798 1165.225,1401.5058 1161.383,1398.4778 C1156.346,1394.5108 1151.423,1390.4408 1146.579,1386.2408 L1146.579,1458.0348 L1146.579,1486.4928 L1118.121,1486.4928 L1061.307,1486.4928 L1032.849,1486.4988 L1032.849,1458.0348 L1032.849,1210.6188 L1032.849,1182.1608 L1061.307,1182.1608 L1118.115,1182.1608 L1118.121,1182.1608 L1146.579,1182.1608 L1146.579,1203.9598 C1180.297,1268.8328 1230.981,1315.2938 1288.74,1342.7388 C1342.235,1368.1638 1401.776,1377.4188 1459.529,1370.0248 C1517.157,1362.6488 1573.1,1338.6758 1619.533,1297.6498 C1664.764,1257.6838 1701.168,1201.2968 1721.635,1127.9598 C1672.59,1130.4978 1622.094,1138.8528 1570.647,1147.3738 C1453.9,1166.7198 1332.355,1186.8618 1199.153,1146.2008 L1178.862,1140.0088 L1179.033,1118.8528 L1179.38,1076.0688 L1179.42,1070.9408 L1179.608,1047.6728 L1180.035,995.2358 L1180.354,956.2078 L1217.275,968.4448 C1331.296,1006.2318 1445.63,987.5068 1559.952,968.7868 C1606.43,961.1768 1652.925,953.5788 1700.143,949.4858 C1664.593,873.2698 1613.369,822.4198 1555.82,793.4558 C1518.324,774.5928 1478.038,764.8658 1437.61,763.3578 C1396.938,761.8438 1355.969,768.6288 1317.414,782.7498 C1246.263,808.8058 1183.723,859.8258 1146.579,929.6678 L1146.579,951.3418 L1118.121,951.3418 L1118.115,951.3418 L1061.307,951.3418 L1032.849,951.3418 L1032.849,922.8838 L1032.849,675.4678 L1032.849,647.0148 L1061.307,647.0088 L1118.121,647.0088 L1146.579,647.0148 L1146.579,675.4678 L1146.579,742.5208 C1159.425,731.4678 1173.461,721.0458 1188.925,711.1938 L1189.039,711.0798 L1189.147,711.0118 L1189.17,711.0458 C1198.635,705.0298 1208.322,699.4118 1218.203,694.2438 C1228.869,688.6668 1239.012,683.8568 1248.608,679.8328 L1248.722,679.8328 C1301.785,657.5848 1360.392,646.4458 1424.508,646.4458 L1424.588,646.4458 L1424.588,646.5598 C1490.799,646.5708 1550.151,661.2498 1602.816,687.3628 C1611.12,691.4778 1619.538,696.0598 1628.013,701.0518 C1670.131,725.8558 1707.463,758.1098 1740.161,795.9308 C1764.379,823.9398 1784.448,852.1018 1800.277,881.5678 C1813.185,905.6038 1823.311,930.4878 1830.556,956.7938 C1833.151,957.1928 1835.485,957.5628 1837.528,957.9268 C1860.335,961.9398 1885.15,968.2798 1908.731,975.5708 L1928.857,981.7978 L1928.851,1002.6978 L1928.851,1046.2668 L1928.851,1054.6788 L1928.851,1075.3288 L1928.851,1087.0018 L1928.851,1126.9008 L1928.851,1166.7708 L1891.167,1153.6918 L1890.199,1153.3558 C1885.27,1151.6478 1880.466,1150.0488 1875.816,1148.5688 C1870.899,1147.0038 1866.448,1145.6438 1862.498,1144.5048 C1853.596,1141.9378 1845.428,1139.8948 1837.978,1138.3068" id="Fill-17" fill="#F6E125"/>
                            <path d="M2254.8501,938.547 L2283.1901,938.706 L2283.1901,966.891 L2283.1901,1006.494 L2283.1901,1034.952 L2262.9201,1034.952 L2264.9401,1168.848 L2264.9401,1168.962 L2264.9501,1170.208 L2264.9501,1170.653 C2264.9101,1174.796 2264.5501,1178.837 2263.9001,1182.651 C2263.3301,1185.997 2262.3901,1189.873 2261.1501,1194.182 C2245.1201,1249.601 2205.9901,1289.483 2147.5131,1300.65 L2032.1491,1300.968 L2003.8551,1301.048 L2003.8041,1272.624 L2003.7071,1213.778 L2003.6621,1184.58 L2032.8321,1185.434 L2068.0461,1186.47 L2094.3641,1187.249 L2095.3031,1207.016 L2114.3991,1207.176 L2114.2621,1189.19 L2106.7321,1188.587 L2104.5121,1188.257 C2068.4101,1182.525 2044.2601,1168.251 2027.7891,1148.523 C2011.6871,1129.234 2004.0771,1105.916 2000.1841,1080.855 L1999.8541,1078.704 L1999.8541,1076.518 L1999.9511,1034.952 L1981.6351,1034.952 L1981.6351,1006.494 L1981.6351,966.891 L1981.6351,938.257 L2010.3151,938.547 L2081.8421,939.281 C2088.1941,939.35 2094.5521,939.367 2100.9151,939.384 L2099.6061,1032.414 L2086.5491,1032.169 L2086.3331,1080.389 C2086.2481,1101.214 2110.8581,1118.266 2125.6511,1118.426 L2125.1561,1032.898 L2103.1181,1032.482 L2104.4271,939.401 C2154.5201,939.475 2204.7501,938.274 2254.8501,938.547" id="Fill-19" fill="#F7E123"/>
                            <path d="M876.977,1269.272 L831.154,1269.272 L831.154,1235.19 L851.615,1235.19 L851.615,1006.761 L831.154,1006.761 L831.154,968.4 L876.977,968.4 L876.977,1269.272 L876.977,1269.272 L876.977,1269.272 Z M881.377,1269.272 L909.943,1269.272 L909.943,968.4 L881.377,968.4 L881.377,1269.272 L881.377,1269.272 L881.377,1269.272 Z M1044.841,1042.329 L1005.944,1042.329 L1005.637,1007.274 L944.332,1008.036 L944.332,1235.19 L964.942,1235.19 L964.942,1269.272 L914.343,1269.272 L914.343,968.4 L1044.841,968.4 L1044.841,1042.329 L1044.841,1042.329 L1044.841,1042.329 Z" id="Fill-21" fill="#1A2128"/>
                            <path d="M1813.6121,1106.0466 C1805.5981,1187.8806 1774.6361,1260.7056 1720.7591,1324.4116 C1647.1601,1411.4026 1548.0231,1459.0596 1421.4181,1459.0596 C1338.8551,1459.0596 1266.4001,1435.1716 1206.2111,1395.7396 C1172.6241,1373.7296 1143.2611,1347.1156 1118.1211,1315.9546 L1118.1211,1458.0346 L1061.3071,1458.0346 L1061.3071,1210.6196 L1118.1151,1210.6196 L1118.1211,1210.6196 L1118.1211,1210.6306 C1257.2361,1491.3646 1685.0431,1467.2776 1757.7141,1098.8746 C1585.3541,1096.5126 1406.9501,1179.9986 1207.3781,1119.0746 L1207.7251,1076.2906 C1455.7721,1126.1836 1601.2281,1059.9496 1751.3801,1055.2026 L1751.3801,1023.5626 C1607.3241,1027.7116 1454.9191,1089.6146 1207.9521,1047.8946 L1208.3791,995.4576 C1389.1291,1055.3616 1563.8401,981.9906 1741.5621,975.2576 C1619.0031,640.6286 1237.2761,686.1106 1118.1211,922.8716 L1118.1211,922.8836 L1118.1151,922.8836 L1061.3071,922.8836 L1061.3071,675.4676 L1118.1211,675.4676 L1118.1211,814.7586 C1141.1211,783.6426 1168.7201,757.6716 1204.1561,735.0926 C1267.1061,694.9726 1340.5621,674.9036 1424.5081,674.9036 C1547.6871,674.9036 1645.1731,729.4466 1718.7041,814.4976 C1764.3741,867.3156 1794.2261,920.4126 1807.6021,982.4576 C1835.6331,985.1616 1869.2651,993.0786 1900.3931,1002.6976 L1900.3931,1046.2666 C1871.2631,1035.5726 1842.9641,1029.2426 1814.8241,1026.0276 L1814.8241,1057.3086 C1842.5031,1060.1716 1870.8131,1065.8236 1900.3931,1075.3286 L1900.3931,1126.9006 C1863.2261,1113.9576 1833.9941,1107.3556 1813.6121,1106.0466" id="Fill-23" fill="#1A2128"/>
                            <path d="M2209.1599,966.641 L2254.7299,966.891 L2254.7299,1006.494 L2234.1499,1006.494 L2236.5899,1169.184 C2237.0399,1185.109 2225.6499,1211.991 2209.1599,1234.319 L2209.1599,966.641 L2209.1599,966.641 L2209.1599,966.641 Z M2175.9699,966.459 L2204.7599,966.618 L2204.7599,1240.005 C2196.0399,1250.802 2186.1399,1260.091 2175.9699,1265.897 L2175.9699,966.459 L2175.9699,966.459 L2175.9699,966.459 Z M2144.6099,1122.325 L2143.8239,1005.987 L2121.1319,1005.76 L2121.1319,966.157 L2171.5699,966.436 L2171.5699,1268.185 C2165.6099,1270.968 2159.6099,1272.47 2153.6899,1272.288 L2032.1489,1272.624 L2032.0519,1213.778 L2067.2659,1214.814 L2068.2339,1235.139 L2142.9649,1235.759 L2142.4009,1162.923 L2108.9569,1160.242 C2051.9499,1151.193 2034.5389,1117.333 2028.1989,1076.518 L2028.3579,1006.494 L2010.0939,1006.494 L2010.0939,966.891 L2081.6199,967.626 L2081.6199,1007.228 L2068.7059,1007.228 L2068.3989,1080.537 C2071.4149,1100.161 2084.5519,1114.072 2107.8079,1122.274 L2144.6099,1122.325 L2144.6099,1122.325 L2144.6099,1122.325 Z" id="Fill-25" fill="#1A2128"/>
                            <path d="M661.64,1269.272 L580.773,1269.272 L580.756,1236.841 L600.454,1236.841 L599.925,1005.111 L580.226,1005.111 L580.773,968.4 L661.64,968.4 L661.64,1269.272 L661.64,1269.272 L661.64,1269.272 Z M696.734,1123.156 C744.163,1129.348 775.376,1104.493 775.501,1066.307 C775.649,1021.657 743.468,1004.394 696.734,1008.321 L696.734,1123.156 L696.734,1123.156 L696.734,1123.156 Z M696.159,1159.4 L696.142,1236.841 L714.748,1236.841 L714.765,1269.272 L666.039,1269.272 L666.039,968.4 L676.939,968.4 C742.666,968.4 810.419,977.176 811.119,1058.259 C811.78,1134.647 771.745,1161.597 696.159,1159.4 L696.159,1159.4 L696.159,1159.4 L696.159,1159.4 Z" id="Fill-27" fill="#1A2128"/>
                            <path d="M1774.0439,1854.39 L1797.6299,1965.343 L1830.1579,1958.428 L1834.9669,1981.035 L1747.9529,1999.527 L1743.1489,1976.926 L1775.5859,1970.027 L1751.9999,1859.074 L1774.0439,1854.39 L1774.0439,1854.39 L1774.0439,1854.39 Z M1898.5769,1821.128 L1933.9159,1953.021 L1853.6409,1974.529 L1847.6589,1952.207 L1906.1639,1936.532 L1898.3269,1907.3 L1843.9709,1921.859 L1838.0239,1899.662 L1892.3789,1885.097 L1882.7599,1849.199 L1822.2979,1865.398 L1816.3379,1843.166 L1898.5769,1821.128 L1898.5769,1821.128 L1898.5769,1821.128 Z M1963.0179,1795.043 L2003.6679,1900.942 L2034.7159,1889.024 L2042.9969,1910.601 L1959.9499,1942.48 L1951.6689,1920.903 L1982.6259,1909.019 L1941.9759,1803.12 L1963.0179,1795.043 L1963.0179,1795.043 L1963.0179,1795.043 Z M2089.8389,1737.171 L2147.5469,1860.918 L2128.0409,1870.014 L2089.5889,1787.553 L2087.0159,1889.149 L2066.4979,1898.711 L2008.7959,1774.963 L2028.2949,1765.868 L2065.9289,1846.57 L2069.2409,1746.778 L2089.8389,1737.171 L2089.8389,1737.171 L2089.8389,1737.171 Z M2152.9099,1758.634 L2129.9309,1763.472 C2124.4789,1748.776 2123.1519,1736.334 2125.9749,1726.089 C2128.8099,1715.867 2135.0989,1707.574 2144.8379,1701.251 C2157.0699,1693.305 2170.0499,1691.586 2183.7699,1696.066 C2199.5999,1701.245 2213.5099,1713.095 2225.5199,1731.57 C2238.1999,1751.115 2243.7299,1769.254 2242.0699,1786.028 C2240.6299,1800.564 2233.4799,1812.027 2220.5599,1820.422 C2210.0499,1827.247 2198.9099,1829.364 2187.1699,1826.797 C2178.7999,1824.947 2170.1799,1819.785 2161.2999,1811.259 L2176.4999,1793.62 C2181.7299,1799.05 2187.1899,1802.255 2192.8999,1803.239 C2198.6299,1804.224 2203.9099,1803.143 2208.7399,1800.012 C2215.6699,1795.51 2219.3699,1788.822 2219.8099,1779.932 C2220.2699,1771.07 2215.9799,1759.675 2206.9399,1745.759 C2197.5799,1731.331 2188.7799,1722.452 2180.5599,1719.145 C2172.3299,1715.81 2164.8099,1716.368 2157.9899,1720.801 C2152.9699,1724.057 2149.9199,1728.81 2148.7989,1735.031 C2147.6779,1741.291 2149.0379,1749.169 2152.9099,1758.634 L2152.9099,1758.634 L2152.9099,1758.634 L2152.9099,1758.634 Z M2319.0299,1723.847 L2296.2599,1692.52 L2286.1599,1699.862 C2279.3699,1704.797 2275.0999,1708.604 2273.3499,1711.336 C2271.6199,1714.04 2270.8699,1717.221 2271.1399,1720.836 C2271.3799,1724.473 2272.8099,1728.07 2275.4499,1731.695 C2278.0999,1735.349 2281.1599,1737.882 2284.5699,1739.22 C2288.0199,1740.557 2291.2199,1740.791 2294.2199,1739.948 C2297.1999,1739.077 2302.4899,1735.867 2310.1299,1730.318 L2319.0299,1723.847 L2319.0299,1723.847 L2319.0299,1723.847 Z M2270.5899,1618.83 L2350.8499,1729.293 L2321.4399,1750.654 C2310.4899,1758.617 2302.9499,1763.273 2298.8099,1764.667 C2292.2099,1766.87 2285.1299,1766.437 2277.5999,1763.42 C2270.0399,1760.381 2263.0799,1754.473 2256.6799,1745.68 C2250.8699,1737.683 2247.5399,1729.891 2246.6199,1722.304 C2245.6999,1714.717 2246.7399,1708.189 2249.6799,1702.713 C2252.5899,1697.261 2259.5799,1690.488 2270.6399,1682.451 L2282.6299,1673.743 L2252.3499,1632.08 L2270.5899,1618.83 L2270.5899,1618.83 L2270.5899,1618.83 Z M2348.1699,1547.337 L2439.5299,1648.808 L2377.7699,1704.415 L2362.3199,1687.238 L2407.3199,1646.713 L2387.0699,1624.22 L2345.2499,1661.876 L2329.8699,1644.795 L2371.6899,1607.139 L2346.8199,1579.523 L2300.2999,1621.408 L2284.8999,1604.299 L2348.1699,1547.337 L2348.1699,1547.337 L2348.1699,1547.337 Z M2452.9299,1517.177 L2424.1699,1494.712 L2411.2499,1511.246 C2405.5899,1518.486 2402.3599,1523.415 2401.4999,1526.05 C2400.6399,1528.697 2400.7999,1531.6 2401.9299,1534.747 C2403.0799,1537.866 2405.3399,1540.758 2408.7799,1543.438 C2412.3099,1546.199 2415.7699,1547.701 2419.2099,1547.997 C2422.6599,1548.282 2425.7899,1547.536 2428.5499,1545.738 C2431.3499,1543.928 2435.7299,1539.198 2441.6699,1531.583 L2452.9299,1517.177 L2452.9299,1517.177 L2452.9299,1517.177 Z M2495.7199,1550.61 L2470.8399,1531.173 L2461.6599,1542.926 C2456.1599,1549.967 2452.8899,1554.418 2451.8199,1556.296 C2449.9299,1559.699 2449.3699,1563.052 2450.0999,1566.404 C2450.8399,1569.734 2453.0099,1572.796 2456.5899,1575.596 C2459.7699,1578.083 2462.8899,1579.421 2465.9599,1579.563 C2469.0299,1579.706 2471.5699,1578.988 2473.6199,1577.4 C2475.6399,1575.795 2480.3399,1570.303 2487.6799,1560.906 L2495.7199,1550.61 L2495.7199,1550.61 L2495.7199,1550.61 Z M2527.5099,1546.842 L2499.9099,1582.164 C2492.3899,1591.789 2486.2199,1597.89 2481.3799,1600.412 C2476.5799,1602.945 2470.8799,1603.832 2464.3099,1603.047 C2457.7899,1602.267 2451.6699,1599.666 2446.0599,1595.278 C2440.8699,1591.231 2437.0899,1586.416 2434.6999,1580.844 C2432.3199,1575.266 2431.5399,1569.859 2432.3899,1564.634 C2426.4499,1568.425 2420.0799,1570.024 2413.2599,1569.455 C2406.4499,1568.937 2399.8099,1566.125 2393.3399,1561.071 C2385.5299,1554.964 2380.3799,1547.878 2377.9199,1539.91 C2375.4499,1531.924 2375.5999,1524.866 2378.3299,1518.731 C2380.2599,1514.462 2386.2799,1505.817 2396.4399,1492.817 L2419.9099,1462.776 L2527.5099,1546.842 L2527.5099,1546.842 L2527.5099,1546.842 Z M2485.2199,1369.746 L2597.0699,1448.063 L2584.7199,1465.696 L2510.1899,1413.504 L2558.7599,1502.777 L2545.7699,1521.321 L2433.9299,1443.004 L2446.2699,1425.376 L2519.2099,1476.448 L2472.1799,1388.369 L2485.2199,1369.746 L2485.2199,1369.746 L2485.2199,1369.746 Z M2527.1999,1264.166 L2653.7999,1315.311 L2645.3599,1336.211 L2595.5499,1316.085 L2578.9299,1357.208 L2628.7399,1377.333 L2620.2699,1398.318 L2493.6599,1347.168 L2502.1399,1326.182 L2557.4999,1348.545 L2574.1099,1307.428 L2518.7599,1285.06 L2527.1999,1264.166 L2527.1999,1264.166 L2527.1999,1264.166 Z M2572.9599,1204.04 L2676.9999,1182.326 L2672.1599,1207.198 L2597.6099,1219.162 L2662.8999,1254.821 L2658.4399,1277.792 L2563.7799,1220.944 C2552.2499,1213.977 2544.3699,1207.847 2540.1099,1202.577 C2535.8799,1197.352 2534.3599,1191.712 2535.5199,1185.752 C2536.6299,1180.01 2538.1899,1175.001 2540.1599,1170.715 L2560.1899,1174.614 C2559.2299,1178.217 2558.5599,1180.971 2558.1899,1182.878 C2557.1599,1188.211 2557.5399,1192.207 2559.3699,1194.796 C2561.2299,1197.42 2565.7499,1200.505 2572.9599,1204.04 L2572.9599,1204.04 L2572.9599,1204.04 L2572.9599,1204.04 Z M2720.5999,1039.449 L2722.5999,1049.722 C2713.9699,1050.809 2706.8999,1049.659 2701.4899,1046.273 C2696.0299,1042.869 2692.7199,1037.969 2691.4699,1031.571 C2690.2299,1025.145 2691.4599,1019.368 2695.2499,1014.166 C2698.9999,1008.998 2705.1099,1005.247 2713.5099,1002.999 L2715.4999,1013.239 C2706.8899,1015.726 2703.3399,1020.974 2704.8899,1028.965 C2706.4399,1036.927 2711.6899,1040.439 2720.5999,1039.449 L2720.5999,1039.449 L2720.5999,1039.449 L2720.5999,1039.449 Z M2539.8399,1014.901 L2673.8699,988.85 L2677.9699,1009.972 L2588.6599,1027.331 L2686.6099,1054.412 L2690.9299,1076.632 L2556.8999,1102.683 L2552.7899,1081.561 L2640.1999,1064.572 L2544.1699,1037.217 L2539.8399,1014.901 L2539.8399,1014.901 L2539.8399,1014.901 Z M2516.9799,904.266 L2651.0099,878.216 L2655.1199,899.337 L2565.7999,916.697 L2663.7599,943.778 L2668.0799,965.998 L2534.0399,992.049 L2529.9299,970.927 L2617.3499,953.937 L2521.3199,926.583 L2516.9799,904.266 L2516.9799,904.266 L2516.9799,904.266 Z M2485.2599,814.099 L2609.0099,756.397 L2618.5399,776.825 L2565.8699,801.384 C2568.5399,805.681 2571.5699,808.123 2574.8599,808.698 C2578.1799,809.284 2585.3099,808.772 2596.1999,807.161 C2607.1099,805.579 2615.4899,805.323 2621.2699,806.381 C2627.0599,807.44 2631.2899,809.5 2633.8599,812.545 C2636.4399,815.585 2639.8999,821.265 2644.2599,829.58 L2625.7099,838.232 L2624.3599,835.352 C2621.6699,829.563 2618.4799,826.274 2614.8399,825.448 C2611.2299,824.64 2605.0599,824.953 2596.4199,826.353 C2587.7499,827.765 2581.7699,828.271 2578.5399,827.884 C2575.2999,827.537 2571.6199,826.2 2567.5399,823.934 C2567.7699,829.296 2566.4899,834.384 2563.6199,839.154 C2560.8099,843.941 2555.4299,850.622 2547.4899,859.166 L2520.0999,888.813 L2508.8799,864.749 L2535.1499,837.594 C2541.8999,830.696 2546.3299,825.369 2548.5499,821.629 C2550.7399,817.907 2550.8499,813.786 2548.8999,809.295 L2494.7899,834.527 L2485.2599,814.099 L2485.2599,814.099 L2485.2599,814.099 Z M2506.9499,750.711 L2512.1799,773.603 C2497.5799,779.306 2485.1699,780.849 2474.8699,778.208 C2464.6099,775.555 2456.1999,769.408 2449.7099,759.784 C2441.5499,747.689 2439.6099,734.741 2443.8399,720.95 C2448.7499,705.024 2460.3499,690.909 2478.6199,678.587 C2497.9399,665.559 2515.9699,659.719 2532.7699,661.085 C2547.3299,662.269 2558.9199,669.213 2567.5399,681.996 C2574.5499,692.383 2576.8599,703.476 2574.4999,715.269 C2572.7999,723.665 2567.7799,732.379 2559.4099,741.4 L2541.5099,726.516 C2546.8499,721.189 2549.9599,715.673 2550.8499,709.942 C2551.7299,704.199 2550.5599,698.94 2547.3399,694.17 C2542.7199,687.318 2535.9699,683.732 2527.0699,683.447 C2518.1999,683.14 2506.8799,687.631 2493.1299,696.908 C2478.8599,706.527 2470.1399,715.48 2466.9799,723.756 C2463.7899,732.043 2464.4699,739.55 2469.0299,746.295 C2472.3699,751.252 2477.1699,754.223 2483.4199,755.23 C2489.6899,756.244 2497.5499,754.747 2506.9499,750.711 L2506.9499,750.711 L2506.9499,750.711 L2506.9499,750.711 Z M2358.3099,638.438 L2461.3699,548.857 L2515.8899,611.573 L2498.4499,626.736 L2458.7099,581.026 L2435.8699,600.884 L2472.7899,643.355 L2455.4399,658.433 L2418.5299,615.962 L2390.4699,640.345 L2431.5399,687.591 L2414.1699,702.691 L2358.3099,638.438 L2358.3099,638.438 L2358.3099,638.438 Z M2332.3399,497.33 L2364.3599,460.5 L2381.3699,475.287 L2357.5999,502.635 C2352.6299,508.35 2349.1799,512.806 2347.2699,516.028 C2345.2999,519.249 2344.6499,522.812 2345.2399,526.694 C2345.8499,530.592 2348.5699,534.639 2353.3899,538.828 C2360.6099,545.112 2367.9999,548.248 2375.5699,548.254 L2414.1899,503.825 L2431.2099,518.612 L2341.6299,621.659 L2324.6199,606.872 L2360.6799,565.386 C2350.7899,563.24 2342.4699,559.199 2335.7199,553.336 C2326.3699,545.203 2321.3699,536.227 2320.7399,526.421 C2320.1099,516.642 2323.9799,506.949 2332.3399,497.33 L2332.3399,497.33 L2332.3399,497.33 L2332.3399,497.33 Z M2187.1199,497.439 L2269.2999,388.392 L2286.4799,401.341 L2231.7299,474.006 L2322.6399,428.587 L2340.7199,442.213 L2258.5399,551.259 L2241.3599,538.31 L2294.9399,467.193 L2205.2799,511.121 L2187.1199,497.439 L2187.1199,497.439 L2187.1199,497.439 Z M2074.3459,429.503 L2144.6669,312.46 L2173.6399,329.871 L2143.0729,420.175 L2208.2999,350.697 L2237.3499,368.153 L2167.0199,485.19 L2149.0659,474.399 L2204.4199,382.268 L2129.9879,462.936 L2111.3019,451.706 L2147.7459,348.209 L2092.3829,440.34 L2074.3459,429.503 L2074.3459,429.503 L2074.3459,429.503 Z M2008.8699,326.9 C2002.2329,341.135 1999.9679,353.059 2002.0339,362.683 C2004.1339,372.331 2009.1489,379.018 2017.1629,382.758 C2025.2049,386.508 2033.5089,386.064 2042.1029,381.477 C2050.6919,376.89 2058.3699,367.282 2065.1999,352.643 C2071.8879,338.289 2074.2669,326.496 2072.3199,317.201 C2070.3909,307.952 2065.2459,301.378 2056.9189,297.497 C2048.5919,293.615 2040.1799,293.9 2031.7389,298.385 C2023.2579,302.887 2015.6369,312.38 2008.8699,326.9 L2008.8699,326.9 L2008.8699,326.9 L2008.8699,326.9 Z M1987.3839,317.901 C1994.2649,303.149 2002.0849,292.027 2010.9069,284.537 C2019.7069,277.024 2028.7279,272.567 2037.9369,271.179 C2047.1459,269.784 2056.7649,271.435 2066.7879,276.108 C2081.3129,282.881 2090.5449,293.917 2094.5349,309.284 C2098.4959,324.635 2095.7129,342.563 2086.1619,363.053 C2076.5149,383.737 2064.1189,397.67 2049.0129,404.801 C2035.7059,411.153 2021.7899,410.909 2007.2079,404.107 C1992.5119,397.254 1983.3089,386.753 1979.5519,372.615 C1975.2949,356.462 1977.9129,338.215 1987.3839,317.901 L1987.3839,317.901 L1987.3839,317.901 L1987.3839,317.901 Z M1856.2879,343.588 L1900.7459,214.484 L1922.0549,221.821 L1904.5649,272.619 L1946.5009,287.058 L1963.9909,236.26 L1985.3919,243.631 L1940.9339,372.735 L1919.5339,365.364 L1938.9709,308.908 L1897.0399,294.469 L1877.6029,350.924 L1856.2879,343.588 L1856.2879,343.588 L1856.2879,343.588 Z M1774.3849,251.121 C1770.3159,266.289 1770.1619,278.43 1773.8669,287.548 C1777.6069,296.683 1783.7139,302.397 1792.2509,304.685 C1800.8229,306.985 1808.9219,305.107 1816.5939,299.096 C1824.2549,293.086 1830.1459,282.294 1834.3299,266.688 C1838.4279,251.394 1838.7179,239.362 1835.1889,230.552 C1831.6769,221.775 1825.4679,216.197 1816.5939,213.824 C1807.7209,211.445 1799.4909,213.186 1791.9549,219.066 C1784.3849,224.968 1778.5289,235.646 1774.3849,251.121 L1774.3849,251.121 L1774.3849,251.121 L1774.3849,251.121 Z M1751.6639,245.987 C1755.8759,230.267 1761.6469,217.95 1769.0349,209.043 C1776.3939,200.118 1784.5049,194.165 1793.3329,191.194 C1802.1599,188.228 1811.9219,188.177 1822.5989,191.04 C1838.0799,195.189 1849.0939,204.455 1855.6899,218.901 C1862.2589,233.329 1862.6289,251.463 1856.7779,273.302 C1850.8699,295.345 1841.0859,311.219 1827.4479,320.867 C1815.4389,329.433 1801.6939,331.607 1786.1499,327.441 C1770.4919,323.246 1759.6039,314.503 1753.4509,301.23 C1746.4509,286.062 1745.8639,267.638 1751.6639,245.987 L1751.6639,245.987 L1751.6639,245.987 L1751.6639,245.987 Z M1645.4979,294.429 L1671.5489,160.391 L1693.6779,164.694 L1682.5849,221.735 C1687.6329,222.105 1691.3949,221.081 1693.7859,218.764 C1696.2219,216.419 1699.9899,210.352 1705.0949,200.596 C1710.2289,190.835 1714.9419,183.914 1719.1989,179.85 C1723.4559,175.792 1727.6059,173.584 1731.5839,173.288 C1735.5629,172.992 1742.1879,173.538 1751.4759,174.893 L1747.5719,194.99 L1744.4529,194.381 C1738.1809,193.163 1733.6499,193.806 1730.8379,196.271 C1728.0669,198.713 1724.6969,203.881 1720.7469,211.695 C1716.7909,219.544 1713.6899,224.678 1711.4749,227.063 C1709.2899,229.482 1706.0459,231.673 1701.8109,233.636 C1706.2849,236.613 1709.6479,240.637 1711.8279,245.754 C1714.0419,250.848 1716.2909,259.124 1718.5329,270.57 L1726.4219,310.155 L1700.3539,305.089 L1693.8309,267.872 C1692.2149,258.361 1690.5019,251.645 1688.7889,247.655 C1687.0639,243.688 1683.7969,241.178 1679.0159,240.119 L1667.6209,298.726 L1645.4979,294.429 L1645.4979,294.429 L1645.4979,294.429 Z M1572.0699,231.24 L1573.6859,208.178 L1608.7009,210.631 C1608.3829,199.168 1606.0149,190.175 1601.6269,183.681 C1597.2379,177.164 1591.3299,173.658 1583.9769,173.146 C1571.9559,172.303 1563.4359,179.293 1558.4159,194.142 L1536.6449,186.47 C1540.0769,173.738 1546.0019,164.238 1554.4489,157.916 C1562.8889,151.596 1573.0199,148.856 1584.8479,149.686 C1600.5849,150.786 1612.6969,158.036 1621.1889,171.506 C1629.6749,184.944 1633.1579,202.623 1631.6329,224.473 C1630.1529,245.595 1624.3759,262.174 1614.2909,274.184 C1604.2049,286.227 1591.5239,291.686 1576.2129,290.616 C1550.7719,288.834 1536.0929,273.148 1532.2679,243.563 L1555.4559,236.511 C1555.9059,245.948 1558.1989,253.307 1562.3539,258.6 C1566.5089,263.893 1571.9159,266.796 1578.6099,267.263 C1593.4139,268.299 1602.9019,257.103 1607.0849,233.688 L1572.0699,231.24 L1572.0699,231.24 L1572.0699,231.24 Z M1377.8989,106.336 L1388.3209,105.426 C1388.5029,114.126 1386.6189,121.026 1382.6859,126.056 C1378.7299,131.126 1373.5109,133.916 1367.0169,134.476 C1360.4999,135.056 1354.8819,133.216 1350.1009,128.906 C1345.3549,124.636 1342.2639,118.166 1340.9089,109.576 L1351.2969,108.666 C1352.8669,117.496 1357.7219,121.576 1365.8269,120.866 C1373.9099,120.156 1377.9509,115.306 1377.8989,106.336 L1377.8989,106.336 L1377.8989,106.336 L1377.8989,106.336 Z M1334.5859,283.547 L1322.6849,147.526 L1344.1249,145.646 L1352.0539,236.289 L1389.2259,141.696 L1411.7759,139.726 L1423.6769,275.749 L1402.2369,277.627 L1394.4729,188.917 L1357.2329,281.566 L1334.5859,283.547 L1334.5859,283.547 L1334.5859,283.547 Z M1291.8469,285.243 L1279.9459,149.216 L1302.3999,147.256 L1314.3009,283.279 L1291.8469,285.243 L1291.8469,285.243 L1291.8469,285.243 Z M1198.1739,234.08 L1201.3099,269.961 L1225.0619,267.883 C1231.2429,267.342 1235.6709,266.546 1238.3509,265.476 C1241.0379,264.411 1243.2689,262.203 1245.0909,258.947 C1246.8779,255.669 1247.6119,252.026 1247.2649,248.008 C1246.2059,235.942 1238.0779,230.591 1222.8419,231.923 L1198.1739,234.08 L1198.1739,234.08 L1198.1739,234.08 Z M1180.8719,294.953 L1168.9699,158.926 L1191.4239,156.966 L1196.1589,211.058 L1228.0779,208.263 C1239.9569,207.222 1249.7009,210.232 1257.3329,217.256 C1264.9709,224.279 1269.3369,234.046 1270.4299,246.556 C1271.3229,256.75 1269.3139,266.244 1264.4019,275.066 C1259.4959,283.894 1249.8489,288.919 1235.4369,290.177 L1180.8719,294.953 L1180.8719,294.953 L1180.8719,294.953 Z M1067.4309,312.876 L1041.3809,178.843 L1063.5039,174.54 L1073.7549,227.279 L1117.2899,218.815 L1107.0399,166.082 L1129.2599,161.762 L1155.3099,295.795 L1133.0899,300.115 L1121.7009,241.508 L1078.1659,249.966 L1089.5549,308.578 L1067.4309,312.876 L1067.4309,312.876 L1067.4309,312.876 Z M958.1229,340.52 L920.4899,209.265 L942.1519,203.055 L956.9619,254.696 L999.5929,242.47 L984.7829,190.83 L1006.5419,184.592 L1044.1809,315.841 L1022.4219,322.079 L1005.9619,264.69 L963.3309,276.916 L979.7909,334.305 L958.1229,340.52 L958.1229,340.52 L958.1229,340.52 Z M861.1199,373.901 L812.1889,246.431 L889.7719,216.647 L898.0539,238.224 L841.5129,259.926 L852.3609,288.185 L904.8949,268.02 L913.1309,289.472 L860.5969,309.643 L873.9149,344.339 L932.3569,321.903 L940.6039,343.394 L861.1199,373.901 L861.1199,373.901 L861.1199,373.901 Z M753.1159,353.861 L767.3789,387.453 L786.6909,379.252 C795.1489,375.666 800.3739,372.928 802.4049,371.033 C804.4319,369.132 805.7069,366.519 806.2419,363.224 C806.7419,359.934 806.1679,356.309 804.4659,352.302 C802.7129,348.17 800.4129,345.181 797.5559,343.252 C794.6649,341.328 791.5739,340.469 788.2839,340.696 C784.9609,340.93 778.8419,342.939 769.9459,346.718 L753.1159,353.861 L753.1159,353.861 L753.1159,353.861 Z M731.8969,303.871 L744.2369,332.933 L757.9589,327.11 C766.1889,323.616 771.2099,321.311 773.0539,320.184 C776.3599,318.123 778.4719,315.465 779.4619,312.176 C780.4189,308.903 780.0139,305.175 778.2389,300.991 C776.6619,297.275 774.5899,294.594 771.9659,292.978 C769.3479,291.367 766.7759,290.764 764.2199,291.156 C761.6699,291.583 754.9029,294.11 743.9289,298.766 L731.8969,303.871 L731.8969,303.871 L731.8969,303.871 Z M702.2719,291.76 L743.5369,274.246 C754.7719,269.471 763.1329,267.132 768.5859,267.268 C774.0159,267.382 779.4229,269.369 784.7959,273.239 C790.1229,277.087 794.2089,282.329 796.9979,288.885 C799.5649,294.941 800.5439,300.986 799.9239,307.013 C799.3029,313.046 797.3679,318.152 794.0899,322.312 C801.1249,321.874 807.4709,323.565 813.1569,327.372 C818.8659,331.129 823.3109,336.809 826.5149,344.356 C830.3909,353.491 831.4609,362.188 829.7419,370.344 C828.0349,378.523 824.4779,384.63 819.1099,388.666 C815.3599,391.466 805.8999,396.105 790.7089,402.553 L755.6199,417.448 L702.2719,291.76 L702.2719,291.76 L702.2719,291.76 Z M694.9639,449.919 L639.9709,350.708 L610.8809,366.832 L599.6799,346.621 L677.4789,303.496 L688.6859,323.707 L659.6819,339.78 L714.6739,438.991 L694.9639,449.919 L694.9639,449.919 L694.9639,449.919 Z M606.4879,441.843 L629.2829,436.202 C635.2419,450.699 636.9999,463.084 634.5419,473.426 C632.0659,483.739 626.0669,492.248 616.5559,498.907 C604.6089,507.274 591.6889,509.448 577.8299,505.447 C561.8189,500.825 547.5049,489.47 534.8699,471.422 C521.5059,452.332 515.3529,434.398 516.4229,417.579 C517.3509,402.997 524.0949,391.295 536.7249,382.45 C546.9869,375.262 558.0399,372.763 569.8729,374.915 C578.2969,376.468 587.0899,381.329 596.2599,389.542 L581.6889,407.704 C576.2759,402.456 570.7039,399.44 564.9559,398.66 C559.2009,397.875 553.9589,399.138 549.2469,402.439 C542.4789,407.18 539.0129,413.988 538.8819,422.889 C538.7279,431.768 543.4129,442.998 552.9349,456.595 C562.7979,470.688 571.9049,479.248 580.2319,482.27 C588.5759,485.315 596.0659,484.496 602.7309,479.829 C607.6319,476.402 610.5169,471.542 611.4169,465.287 C612.3209,458.986 610.6879,451.166 606.4879,441.843 L606.4879,441.843 L606.4879,441.843 L606.4879,441.843 Z M442.6819,485.207 L466.5239,515.726 L476.3649,508.037 C482.9839,502.863 487.1109,498.907 488.7669,496.118 C490.4009,493.358 491.0439,490.153 490.6449,486.551 C490.2749,482.925 488.7219,479.379 485.9609,475.845 C483.1779,472.287 480.0359,469.863 476.5809,468.645 C473.0869,467.427 469.8819,467.307 466.9109,468.258 C463.9689,469.225 458.7889,472.623 451.3499,478.434 L442.6819,485.207 L442.6819,485.207 L442.6819,485.207 Z M494.7549,588.471 L410.6949,480.876 L439.3299,458.502 C450.0009,450.164 457.3779,445.246 461.4589,443.709 C467.9869,441.279 475.0789,441.467 482.7059,444.216 C490.3609,446.988 497.5319,452.651 504.2199,461.217 C510.3099,469.003 513.9189,476.676 515.0969,484.223 C516.2749,491.775 515.4719,498.338 512.7229,503.91 C510.0079,509.465 503.2579,516.472 492.4839,524.889 L480.8099,534.013 L512.5179,574.595 L494.7549,588.471 L494.7549,588.471 L494.7549,588.471 Z M417.8779,588.932 L370.3179,565.625 L397.0409,611.277 L417.8779,588.932 L417.8779,588.932 L417.8779,588.932 Z M485.7619,595.335 L468.9999,613.309 L439.6249,599.308 L409.1469,631.995 L425.5499,659.901 L409.1579,677.483 L339.0259,552.483 L355.3489,534.975 L485.7619,595.335 L485.7619,595.335 L485.7619,595.335 Z M291.4549,643.253 L272.8029,670.903 C306.1959,693.425 329.5029,712.828 342.6059,729.106 L366.4079,693.812 L291.4549,643.253 L291.4549,643.253 L291.4549,643.253 Z M379.0149,675.126 L384.4339,667.09 L428.2419,696.635 L417.8779,712.002 L393.2329,695.377 L353.6929,753.995 L378.3379,770.621 L367.9789,785.982 L324.1699,756.437 L329.3779,748.714 C323.5219,740.353 315.5019,731.53 305.4219,722.316 C295.2969,713.112 279.1319,700.978 256.8889,685.974 L241.7609,675.769 L284.9779,611.699 L379.0149,675.126 L379.0149,675.126 L379.0149,675.126 Z M282.1199,800.695 L176.1309,792.892 L187.6329,770.313 L262.5919,779.357 L209.6599,727.085 L220.2809,706.237 L295.6039,786.973 C304.7679,796.848 310.6529,804.913 313.2939,811.151 C315.9229,817.338 315.8319,823.183 313.0719,828.596 C310.4189,833.804 307.5389,838.192 304.4719,841.766 L286.2869,832.5 C288.2049,829.302 289.5989,826.837 290.4819,825.107 C292.9459,820.263 293.6749,816.313 292.6329,813.325 C291.5739,810.286 288.0799,806.08 282.1199,800.695 L282.1199,800.695 L282.1199,800.695 L282.1199,800.695 Z M235.7219,873.082 L247.8569,852.979 C262.3249,859.012 272.3249,866.525 277.8969,875.575 C283.4409,884.624 285.2109,894.881 283.1959,906.31 C280.6629,920.675 273.0649,931.347 260.4409,938.319 C245.8479,946.373 227.6969,948.462 205.9999,944.637 C183.0519,940.59 166.0219,932.263 154.8839,919.611 C145.2299,908.643 141.7199,895.598 144.3999,880.413 C146.5699,868.079 152.6239,858.494 162.5109,851.647 C169.5679,846.792 179.2269,844.009 191.5149,843.331 L194.0539,866.474 C186.5119,866.593 180.4449,868.403 175.8229,871.915 C171.2019,875.427 168.3899,880.026 167.3879,885.694 C165.9539,893.833 168.3219,901.096 174.5199,907.488 C180.6899,913.868 191.9479,918.501 208.2939,921.381 C225.2319,924.369 237.7259,923.988 245.7509,920.237 C253.7989,916.492 258.5169,910.612 259.9349,902.593 C260.9699,896.708 259.5759,891.232 255.7909,886.173 C251.9779,881.078 245.2839,876.707 235.7219,873.082 L235.7219,873.082 L235.7219,873.082 L235.7219,873.082 Z M188.0259,1042.198 C203.4899,1044.924 215.5959,1044.025 224.3559,1039.54 C233.1329,1035.015 238.2949,1028.435 239.8319,1019.733 C241.3679,1010.99 238.7959,1003.085 232.1359,995.97 C225.4829,988.861 214.2189,983.932 198.3109,981.126 C182.7159,978.377 170.7059,979.129 162.2369,983.414 C153.7969,987.677 148.7799,994.348 147.1899,1003.398 C145.5899,1012.442 148.0399,1020.49 154.5649,1027.485 C161.1049,1034.514 172.2489,1039.414 188.0259,1042.198 L188.0259,1042.198 L188.0259,1042.198 L188.0259,1042.198 Z M184.8899,1065.277 C168.8619,1062.454 156.0899,1057.781 146.5699,1051.196 C137.0399,1044.639 130.3999,1037.075 126.6799,1028.543 C122.9499,1020.012 122.0499,1010.29 123.9699,999.402 C126.7599,983.614 135.0299,971.838 148.8399,964.011 C162.6409,956.208 180.6729,954.256 202.9379,958.183 C225.4149,962.145 242.0799,970.511 252.8769,983.255 C262.4619,994.473 265.8249,1007.974 263.0309,1023.819 C260.2129,1039.79 252.4499,1051.395 239.7689,1058.686 C225.2669,1066.979 206.9679,1069.17 184.8899,1065.277 L184.8899,1065.277 L184.8899,1065.277 L184.8899,1065.277 Z M264.2029,1163.771 L131.7299,1191.934 L115.3399,1114.84 L137.9499,1110.036 L149.6499,1165.08 L259.5189,1141.727 L264.2029,1163.771 L264.2029,1163.771 L264.2029,1163.771 Z M114.0499,1295.356 L111.8799,1285.123 C120.4799,1283.882 127.5599,1284.907 133.0399,1288.196 C138.5499,1291.509 141.9499,1296.347 143.3099,1302.721 C144.6699,1309.125 143.5299,1314.924 139.8399,1320.195 C136.1799,1325.425 130.1399,1329.279 121.7699,1331.675 L119.5999,1321.475 C128.1799,1318.84 131.6299,1313.524 129.9399,1305.562 C128.2599,1297.627 122.9399,1294.207 114.0499,1295.356 L114.0499,1295.356 L114.0499,1295.356 L114.0499,1295.356 Z M295.2169,1316.746 L161.6569,1345.136 L157.1829,1324.082 L246.1829,1305.169 L147.7699,1279.801 L143.0599,1257.661 L276.6219,1229.271 L281.0959,1250.324 L193.9969,1268.833 L290.4869,1294.508 L295.2169,1316.746 L295.2169,1316.746 L295.2169,1316.746 Z M347.3919,1417.118 L227.9699,1483.317 L217.5369,1464.495 L297.1179,1420.385 L195.5899,1424.898 L184.6169,1405.103 L304.0389,1338.903 L314.4719,1357.726 L236.5869,1400.897 L336.3729,1397.237 L347.3919,1417.118 L347.3919,1417.118 L347.3919,1417.118 Z M404.6049,1492.208 L297.0039,1576.268 L283.1279,1558.51 L328.9229,1522.732 C325.3539,1519.141 321.8479,1517.445 318.5189,1517.627 C315.1429,1517.797 308.3189,1519.903 298.0629,1523.922 C287.7889,1527.917 279.6899,1530.052 273.8109,1530.325 C267.9369,1530.592 263.3549,1529.539 260.1619,1527.149 C256.9629,1524.764 252.3189,1520.006 246.1949,1512.891 L262.3309,1500.284 L264.2829,1502.789 C268.2209,1507.826 272.0629,1510.313 275.7969,1510.296 C279.4909,1510.273 285.4269,1508.577 293.5319,1505.27 C301.6659,1501.946 307.3739,1500.108 310.6129,1499.761 C313.8509,1499.368 317.7329,1499.84 322.2179,1501.132 C320.7949,1495.959 320.8979,1490.717 322.6109,1485.423 C324.2789,1480.124 328.0119,1472.407 333.8289,1462.293 L353.8469,1427.243 L370.1929,1448.166 L350.7049,1480.534 C345.6849,1488.776 342.5709,1494.963 341.2449,1499.106 C339.9479,1503.227 340.7619,1507.268 343.6759,1511.201 L390.7289,1474.444 L404.6049,1492.208 L404.6049,1492.208 L404.6049,1492.208 Z M395.9249,1558.664 L386.7899,1537.03 C400.1769,1528.873 412.1349,1525.202 422.7329,1526.01 C433.3079,1526.847 442.6479,1531.44 450.7129,1539.79 C460.8439,1550.28 465.0099,1562.699 463.2339,1577.013 C461.1679,1593.548 452.1929,1609.467 436.3409,1624.772 C419.5799,1640.959 402.8289,1649.838 386.0499,1651.415 C371.5019,1652.781 358.8889,1647.948 348.1779,1636.855 C339.4749,1627.845 335.2749,1617.322 335.5479,1605.295 C335.7699,1596.729 339.1909,1587.281 345.8669,1576.945 L366.0839,1588.493 C361.7519,1594.663 359.6459,1600.639 359.7719,1606.433 C359.8909,1612.245 361.9629,1617.219 365.9579,1621.363 C371.7009,1627.305 378.9699,1629.661 387.7859,1628.398 C396.5739,1627.163 406.9379,1620.776 418.8739,1609.245 C431.2469,1597.298 438.2819,1586.968 439.9669,1578.271 C441.6689,1569.552 439.6819,1562.283 434.0309,1556.427 C429.8759,1552.129 424.6279,1550.035 418.3099,1550.126 C411.9469,1550.217 404.4739,1553.057 395.9249,1558.664 L395.9249,1558.664 L395.9249,1558.664 L395.9249,1558.664 Z M512.9169,1677.932 L536.3779,1649.975 L520.2989,1636.485 C513.2639,1630.577 508.4489,1627.168 505.8419,1626.218 C503.2299,1625.273 500.3209,1625.324 497.1399,1626.349 C493.9809,1627.39 491.0149,1629.547 488.2149,1632.883 C485.3289,1636.32 483.7129,1639.73 483.2919,1643.15 C482.8879,1646.599 483.5249,1649.747 485.2209,1652.576 C486.9399,1655.427 491.5109,1659.969 498.9099,1666.179 L512.9169,1677.932 L512.9169,1677.932 L512.9169,1677.932 Z M478.0099,1719.527 L498.3059,1695.343 L486.8829,1685.758 C480.0359,1680.015 475.6989,1676.583 473.8609,1675.456 C470.5249,1673.447 467.1959,1672.77 463.8149,1673.384 C460.4679,1674.01 457.3269,1676.065 454.4069,1679.548 C451.8109,1682.639 450.3659,1685.707 450.1149,1688.775 C449.8649,1691.842 450.4969,1694.404 452.0049,1696.504 C453.5419,1698.581 458.8629,1703.465 467.9979,1711.131 L478.0099,1719.527 L478.0099,1719.527 L478.0099,1719.527 Z M480.6679,1751.428 L446.3299,1722.611 C436.9789,1714.763 431.0939,1708.377 428.7429,1703.459 C426.3749,1698.564 425.6919,1692.85 426.6999,1686.304 C427.7129,1679.81 430.5249,1673.788 435.1009,1668.33 C439.3349,1663.293 444.2699,1659.679 449.9269,1657.493 C455.5789,1655.302 461.0149,1654.71 466.2059,1655.746 C462.6249,1649.673 461.2479,1643.253 462.0559,1636.457 C462.8129,1629.667 465.8579,1623.127 471.1289,1616.844 C477.5029,1609.245 484.7659,1604.345 492.8139,1602.176 C500.8789,1599.979 507.9309,1600.378 513.9699,1603.326 C518.1649,1605.398 526.5999,1611.721 539.2349,1622.33 L568.4389,1646.827 L480.6679,1751.428 L480.6679,1751.428 L480.6679,1751.428 Z M617.9559,1761.776 C626.5049,1748.611 630.4099,1737.114 629.6979,1727.296 C628.9639,1717.455 624.9279,1710.13 617.5119,1705.314 C610.0729,1700.482 601.7859,1699.759 592.6339,1703.112 C583.4929,1706.459 574.5519,1714.905 565.7519,1728.451 C557.1299,1741.73 553.1339,1753.079 553.7659,1762.55 C554.3919,1771.986 558.5749,1779.203 566.2819,1784.206 C573.9829,1789.209 582.3489,1790.097 591.3359,1786.83 C600.3629,1783.558 609.2249,1775.214 617.9559,1761.776 L617.9559,1761.776 L617.9559,1761.776 L617.9559,1761.776 Z M637.9739,1773.683 C629.1119,1787.331 619.8169,1797.263 610.0389,1803.45 C600.2839,1809.665 590.7219,1812.824 581.4099,1812.915 C572.0989,1813.012 562.8039,1810.041 553.5319,1804.019 C540.0889,1795.288 532.4789,1783.074 530.6689,1767.302 C528.8819,1751.548 534.1299,1734.183 546.4459,1715.224 C558.8769,1696.083 573.0889,1684.011 589.0369,1679.053 C603.1069,1674.614 616.8519,1676.794 630.3469,1685.559 C643.9439,1694.387 651.5939,1706.066 653.3469,1720.591 C655.3159,1737.176 650.1819,1754.883 637.9739,1773.683 L637.9739,1773.683 L637.9739,1773.683 L637.9739,1773.683 Z M733.8209,1747.581 L680.5639,1847.737 L709.9279,1863.349 L699.0789,1883.753 L620.5339,1841.988 L631.3829,1821.589 L660.6609,1837.156 L713.9169,1737 L733.8209,1747.581 L733.8209,1747.581 L733.8209,1747.581 Z M775.1479,1821.914 L757.7259,1806.165 C766.4109,1793.12 775.6949,1784.73 785.6439,1780.991 C795.5749,1777.274 805.9859,1777.49 816.8219,1781.651 C830.4429,1786.882 839.4639,1796.375 843.9029,1810.098 C849.0199,1825.955 847.6089,1844.174 839.7139,1864.743 C831.3649,1886.497 819.9359,1901.625 805.3939,1910.146 C792.7869,1917.528 779.3139,1918.484 764.9199,1912.957 C753.2239,1908.472 744.9649,1900.703 740.1329,1889.69 C736.7119,1881.835 735.8249,1871.824 737.5039,1859.632 L760.7079,1861.556 C759.3879,1868.983 760.0029,1875.284 762.5699,1880.486 C765.1369,1885.7 769.1149,1889.337 774.4879,1891.397 C782.1999,1894.363 789.7869,1893.423 797.2369,1888.557 C804.6819,1883.719 811.3749,1873.554 817.3229,1858.056 C823.4869,1841.999 825.4959,1829.666 823.3449,1821.071 C821.2049,1812.448 816.3329,1806.7 808.7349,1803.78 C803.1569,1801.64 797.5159,1801.959 791.8249,1804.713 C786.0989,1807.485 780.5269,1813.217 775.1479,1821.914 L775.1479,1821.914 L775.1479,1821.914 L775.1479,1821.914 Z M936.6539,1899.508 C941.2419,1884.493 941.8219,1872.37 938.4359,1863.127 C935.0209,1853.867 929.1189,1847.936 920.6659,1845.352 C912.1799,1842.762 904.0129,1844.35 896.1409,1850.093 C888.2749,1855.83 882.0089,1866.411 877.2849,1881.858 C872.6569,1897.004 871.9459,1909.013 875.1619,1917.943 C878.3659,1926.839 884.3769,1932.628 893.1589,1935.314 C901.9469,1938 910.2339,1936.549 917.9689,1930.931 C925.7429,1925.297 931.9699,1914.83 936.6539,1899.508 L936.6539,1899.508 L936.6539,1899.508 L936.6539,1899.508 Z M959.1759,1905.433 C954.4179,1921 948.2249,1933.106 940.5249,1941.751 C932.8639,1950.414 924.5479,1956.083 915.6239,1958.741 C906.6989,1961.399 896.9439,1961.103 886.3689,1957.87 C871.0409,1953.186 860.3579,1943.538 854.2729,1928.877 C848.2119,1914.226 848.4679,1896.087 855.0819,1874.47 C861.7519,1852.643 872.0879,1837.122 886.0559,1827.958 C898.3499,1819.813 912.1629,1818.123 927.5529,1822.824 C943.0569,1827.565 953.6329,1836.683 959.3239,1850.161 C965.7839,1865.563 965.7329,1883.998 959.1759,1905.433 L959.1759,1905.433 L959.1759,1905.433 L959.1759,1905.433 Z M1026.8609,1971.541 L1036.2299,1933.965 L1024.1119,1930.943 C1015.9619,1928.911 1010.3039,1928.091 1007.0829,1928.501 C1003.9009,1928.917 1000.9869,1930.385 998.3859,1932.918 C995.7559,1935.439 993.9239,1938.849 992.8369,1943.197 C991.7439,1947.579 991.7719,1951.552 992.9389,1955.024 C994.1339,1958.525 996.0069,1961.126 998.5849,1962.879 C1001.1629,1964.603 1007.0259,1966.595 1016.1889,1968.878 L1026.8609,1971.541 L1026.8609,1971.541 L1026.8609,1971.541 Z M1076.1739,1866.929 L1043.1449,1999.413 L1007.8799,1990.62 C994.7429,1987.347 986.3249,1984.564 982.5969,1982.287 C976.6609,1978.645 972.4489,1972.941 969.9159,1965.235 C967.3889,1957.494 967.4349,1948.365 970.0639,1937.813 C972.4599,1928.222 976.2799,1920.658 981.4989,1915.08 C986.7289,1909.502 992.3929,1906.099 998.4769,1904.829 C1004.5269,1903.549 1014.2029,1904.556 1027.4699,1907.863 L1041.8469,1911.449 L1054.3059,1861.476 L1076.1739,1866.929 L1076.1739,1866.929 L1076.1739,1866.929 Z" id="Fill-29" fill="#FFF100"/>
                            <g id="rinkh" transform="translate(1221.000000, 1897.000000)" fill="#FFE600">
                                <path d="M55.4504368,123.581838 L55.4504368,20.4113444 L81.311782,20.4113444 C84.9072653,20.2861876 88.5046158,20.5982663 92.0257678,21.3408083 C95.3036172,22.1249609 98.3059325,23.7963256 100.707791,26.1740206 C103.356921,29.0334372 105.316336,32.46821 106.434232,36.2122308 C107.932888,40.7685726 108.681649,45.54073 108.650918,50.3400821 C108.905884,58.174399 106.918182,65.9174172 102.924478,72.6472158 C98.1713881,79.2238289 90.2609348,82.7065515 82.2354014,81.755962 L63.763012,81.755962 L63.763012,123.76773 L55.4504368,123.581838 Z M64.8713554,69.4870385 L83.3437448,69.4870385 C88.1093439,69.9678082 92.8244153,68.1798721 96.0896935,64.6538262 C98.8220101,60.5467175 100.121517,55.6427325 99.7841714,50.7118677 C99.9033037,46.8722827 99.1449306,43.056423 97.5674846,39.5583008 C96.4199831,36.847383 94.3136175,34.6614483 91.65632,33.4238391 C88.7789196,32.9826066 85.8516975,32.9826066 82.974297,33.4238391 L64.5019076,33.4238391 L64.8713554,69.4870385 Z" id="Shape"/>
                                <polygon id="Shape" points="131.187233 20.4113444 139.684532 20.4113444 139.684532 102.204168 176.629311 20.4113444 185.865506 20.4113444 185.865506 123.581838 177.368207 123.581838 177.368207 41.974907 140.423428 123.581838 131.002509 123.581838"/>
                                <polygon id="Shape" points="212.096299 123.581838 212.096299 20.4113444 221.517218 20.4113444 221.517218 62.7948984 258.461996 62.7948984 258.461996 20.4113444 267.882915 20.4113444 267.882915 123.581838 258.461996 123.581838 258.461996 74.8779291 221.517218 74.8779291 221.517218 123.581838"/>
                                <path d="M285.431685,123.581838 L312.586097,70.2306096 L288.571991,20.4113444 L299.840149,20.4113444 L312.770821,46.994012 C315.356956,52.3849027 317.204195,56.6604366 318.312538,59.4488283 C319.975053,55.7309727 321.822292,51.8272243 324.038979,47.7375832 L338.077995,20.4113444 L348.237809,20.4113444 L323.854255,69.4870385 L350.269772,123.581838 L338.81689,123.581838 L320.344501,86.4032815 L317.388919,80.082927 L314.248612,87.1468527 L295.776223,123.024159 L285.431685,123.581838 Z" id="Shape"/>
                                <path d="M44.3670032,0.149031312 C25.8004482,20.3327996 15.7929282,47.0105347 16.4736952,74.5061436 C16.0416102,101.958719 26.0153522,128.54641 44.3670032,148.863256 L29.03492,148.863256 C9.96156409,128.922139 -0.468994524,102.17931 0.033268593,74.5061436 C-0.269943944,46.8693629 10.1320657,20.1997298 29.03492,0.149031312 L44.3670032,0.149031312 Z" id="Shape"/>
                                <path d="M376.870012,0.149031312 C395.772867,20.1997298 406.174876,46.8693629 405.871664,74.5061436 C406.373927,102.17931 395.943368,128.922139 376.870012,148.863256 L361.537929,148.863256 C379.88958,128.54641 389.863322,101.958719 389.431237,74.5061436 C390.112004,47.0105347 380.104484,20.3327996 361.537929,0.149031312 L376.870012,0.149031312 Z" id="Shape"/>
                            </g>
                        </g>
                    </g>
                </g>
            </g>
        </g>
    </g>
<style xmlns="" type="text/css" id="igtranslator-color"/></svg>